<?xml version="1.0" encoding="utf-8" ?>
<svg baseProfile="tiny" height="64px" version="1.2" width="64px" xmlns="http://www.w3.org/2000/svg" xmlns:ev="http://www.w3.org/2001/xml-events" xmlns:xlink="http://www.w3.org/1999/xlink"><defs /><polygon fill="black" points="57,63 58,63" /><polygon fill="black" points="55,63" /><polygon fill="black" points="24,63" /><polygon fill="black" points="63,62" /><polygon fill="black" points="17,62 18,63" /><polygon fill="black" points="23,61" /><polygon fill="black" points="9,61 8,62 6,62 5,63 4,62 5,63 6,62 7,63 8,62 9,63 15,63 13,63 12,62 11,63 9,63 8,62" /><polygon fill="black" points="2,61 1,62 0,62 0,63 1,62 2,63" /><polygon fill="black" points="55,60 54,61 55,60 56,61" /><polygon fill="black" points="0,58 1,59 0,60 1,59" /><polygon fill="black" points="60,57" /><polygon fill="black" points="10,57" /><polygon fill="black" points="7,57 6,58 7,59 8,59 7,59 6,58" /><polygon fill="black" points="57,56 58,57 58,58 58,57" /><polygon fill="black" points="4,56" /><polygon fill="black" points="63,55 63,57" /><polygon fill="black" points="61,55" /><polygon fill="black" points="59,55" /><polygon fill="black" points="25,55" /><polygon fill="black" points="56,53" /><polygon fill="black" points="19,52 19,54" /><polygon fill="black" points="1,52 0,53 1,54 2,53 2,52" /><polygon fill="black" points="60,49" /><polygon fill="black" points="55,48 54,49 54,50 55,50 56,51 54,49" /><polygon fill="black" points="49,48 48,49 47,49 48,50 48,51 50,51 51,52 51,50 50,51 48,49" /><polygon fill="black" points="54,46" /><polygon fill="black" points="49,46 50,46 51,47 50,46" /><polygon fill="black" points="52,45" /><polygon fill="black" points="59,44" /><polygon fill="black" points="57,43" /><polygon fill="black" points="37,42 38,43 38,42" /><polygon fill="black" points="26,42" /><polygon fill="black" points="23,42" /><polygon fill="black" points="55,41 54,42" /><polygon fill="black" points="60,40 59,41" /><polygon fill="black" points="26,40" /><polygon fill="black" points="56,39" /><polygon fill="black" points="39,39" /><polygon fill="black" points="30,39" /><polygon fill="black" points="23,39" /><polygon fill="black" points="62,38 63,39 63,40 62,41 63,41 63,39" /><polygon fill="black" points="34,38 33,39 35,39 36,40 37,40 37,38" /><polygon fill="black" points="28,38" /><polygon fill="black" points="21,38" /><polygon fill="black" points="5,38" /><polygon fill="black" points="59,36 60,36" /><polygon fill="black" points="56,36" /><polygon fill="black" points="36,36" /><polygon fill="black" points="27,36 26,37" /><polygon fill="black" points="19,36 21,36" /><polygon fill="black" points="45,35" /><polygon fill="black" points="32,35" /><polygon fill="black" points="16,35 17,35" /><polygon fill="black" points="59,34" /><polygon fill="black" points="36,34" /><polygon fill="black" points="12,34 11,35" /><polygon fill="black" points="45,33 46,33" /><polygon fill="black" points="42,33" /><polygon fill="black" points="20,33 21,33" /><polygon fill="black" points="15,33" /><polygon fill="black" points="50,32 52,34 50,36 47,36 47,37 46,38 45,38 44,37 43,37 42,36 43,37 42,38 41,38 42,39 42,40 41,41 40,41 42,41 43,42 41,44 40,43 40,44 38,46 37,46 36,45 36,44 35,43 35,42 34,42 33,43 32,42 32,41 30,41 28,43 29,42 30,43 30,44 29,45 23,45 22,44 23,45 22,46 20,46 19,45 20,46 21,46 22,47 21,48 19,48 18,49 18,50 19,49 20,50 23,50 24,49 25,49 26,50 25,51 25,53 26,53 27,54 27,55 28,56 27,57 28,58 26,60 23,57 22,57 21,56 23,54 22,54 21,53 21,52 21,53 22,54 21,55 21,56 20,57 19,56 18,56 17,57 16,56 16,55 17,54 16,55 15,55 14,54 14,52 14,53 13,54 12,53 11,53 10,52 8,54 7,54 6,53 10,49 11,49 12,48 16,48 16,47 14,45 12,45 11,44 12,43 14,43 15,42 16,43 16,44 17,45 16,44 16,43 17,42 18,43 17,42 17,41 16,40 15,40 14,39 15,38 14,39 13,39 12,40 11,40 10,39 10,38 9,39 8,39 6,41 6,42 5,43 4,43 3,42 4,41 1,41 0,40 1,41 0,42 0,50 3,50 4,51 5,50 6,50 7,51 7,52 6,53 7,54 7,55 11,55 12,56 12,55 13,54 14,55 14,57 13,58 12,58 11,59 11,60 12,60 12,59 13,58 14,58 15,59 15,60 14,61 15,60 20,60 21,61 21,62 22,63 21,62 21,61 20,60 21,59 23,59 24,58 26,60 25,61 26,60 27,61 28,60 27,59 28,58 32,58 33,57 35,59 37,57 38,57 39,58 37,60 38,61 36,63 35,63 34,62 35,61 33,61 32,60 31,61 30,60 30,61 28,63 26,63 28,63 29,62 30,62 31,63 32,62 34,62 35,63 36,63 37,62 38,63 40,63 41,62 42,63 46,63 46,62 47,61 48,61 47,60 44,60 43,59 44,58 47,58 48,57 49,58 50,58 49,58 48,57 50,55 51,56 52,55 53,56 53,58 51,60 51,61 49,63 50,63 51,62 51,60 53,58 54,58 53,57 53,55 54,54 53,53 52,54 51,54 50,55 48,53 40,53 39,52 39,51 40,50 41,51 46,51 44,49 45,48 43,48 42,47 41,48 39,46 40,45 44,45 44,44 43,44 42,43 43,42 45,42 46,43 46,46 47,46 47,44 48,43 49,43 49,42 48,41 48,39 49,38 50,38 49,38 48,37 49,36 51,36 51,35 52,34" /><polygon fill="black" points="12,32" /><polygon fill="black" points="57,31 56,32 55,32 56,32 57,31 58,31" /><polygon fill="black" points="46,31" /><polygon fill="black" points="34,31" /><polygon fill="black" points="4,31 6,33 6,34 6,33" /><polygon fill="black" points="0,31" /><polygon fill="black" points="60,30 62,32 62,33 62,32" /><polygon fill="black" points="41,30 42,30 43,31 42,30" /><polygon fill="black" points="38,30 39,31 38,32 39,31" /><polygon fill="black" points="26,30" /><polygon fill="black" points="15,30" /><polygon fill="black" points="44,29" /><polygon fill="black" points="36,29" /><polygon fill="black" points="30,29" /><polygon fill="black" points="56,28" /><polygon fill="black" points="51,28 53,30 52,31 53,30 53,28 52,29" /><polygon fill="black" points="21,28" /><polygon fill="black" points="9,28 10,28" /><polygon fill="black" points="60,27" /><polygon fill="black" points="34,27 35,27" /><polygon fill="black" points="30,27" /><polygon fill="black" points="28,27" /><polygon fill="black" points="5,27" /><polygon fill="black" points="46,26" /><polygon fill="black" points="40,26 40,28" /><polygon fill="black" points="32,26" /><polygon fill="black" points="24,26" /><polygon fill="black" points="20,26 19,27 19,28 19,27" /><polygon fill="black" points="17,26" /><polygon fill="black" points="14,26" /><polygon fill="black" points="27,25" /><polygon fill="black" points="1,25 0,26 1,25 2,25" /><polygon fill="black" points="47,24 48,25 48,26 49,27 49,26" /><polygon fill="black" points="42,24 43,25 42,26 43,26 44,27 44,26" /><polygon fill="black" points="25,24" /><polygon fill="black" points="44,23 45,24 45,23" /><polygon fill="black" points="11,23" /><polygon fill="black" points="5,22" /><polygon fill="black" points="49,21" /><polygon fill="black" points="43,21" /><polygon fill="black" points="40,21 41,22 40,23 41,22" /><polygon fill="black" points="28,21 28,22 29,23 28,22" /><polygon fill="black" points="21,21" /><polygon fill="black" points="2,21" /><polygon fill="black" points="60,20 60,21 61,22 60,21" /><polygon fill="black" points="52,20" /><polygon fill="black" points="16,20" /><polygon fill="black" points="9,20 10,20 11,21 10,20" /><polygon fill="black" points="6,20" /><polygon fill="black" points="63,19 62,20" /><polygon fill="black" points="45,19 45,20 46,21 45,20" /><polygon fill="black" points="37,19 37,20 36,21 37,21" /><polygon fill="black" points="14,19 13,20" /><polygon fill="black" points="51,18" /><polygon fill="black" points="39,18 40,19 41,19 40,18" /><polygon fill="black" points="58,17" /><polygon fill="black" points="55,17" /><polygon fill="black" points="48,17" /><polygon fill="black" points="44,17" /><polygon fill="black" points="29,17" /><polygon fill="black" points="22,17" /><polygon fill="black" points="63,16" /><polygon fill="black" points="40,16 41,16" /><polygon fill="black" points="35,16 35,17 33,19 34,20 33,19 34,18 35,18 35,17 36,16" /><polygon fill="black" points="33,16" /><polygon fill="black" points="26,16 27,17 27,18 27,17" /><polygon fill="black" points="24,16" /><polygon fill="black" points="20,16 20,17" /><polygon fill="black" points="18,16" /><polygon fill="black" points="8,16" /><polygon fill="black" points="49,15 50,16" /><polygon fill="black" points="43,15" /><polygon fill="black" points="22,15" /><polygon fill="black" points="12,15 13,15" /><polygon fill="black" points="41,14" /><polygon fill="black" points="33,14" /><polygon fill="black" points="28,14" /><polygon fill="black" points="3,14" /><polygon fill="black" points="47,13 45,15" /><polygon fill="black" points="43,13" /><polygon fill="black" points="18,13 19,13" /><polygon fill="black" points="6,13 7,13" /><polygon fill="black" points="0,13 0,14 1,14" /><polygon fill="black" points="61,12 61,13 59,15 60,16 61,15 61,13 62,12" /><polygon fill="black" points="50,12" /><polygon fill="black" points="23,12 22,13" /><polygon fill="black" points="13,12" /><polygon fill="black" points="48,11" /><polygon fill="black" points="36,11 37,12 36,13 35,13 36,13 37,14 40,11 38,13" /><polygon fill="black" points="34,11" /><polygon fill="black" points="32,11" /><polygon fill="black" points="30,11" /><polygon fill="black" points="26,11" /><polygon fill="black" points="56,10 56,11" /><polygon fill="black" points="54,10 54,11 52,13 52,14 53,15 54,15 55,14 54,15 53,15 52,14 52,13 54,11" /><polygon fill="black" points="51,10" /><polygon fill="black" points="46,10" /><polygon fill="black" points="20,10" /><polygon fill="black" points="36,9 37,9" /><polygon fill="black" points="23,9" /><polygon fill="black" points="17,9" /><polygon fill="black" points="61,8 61,9 62,9" /><polygon fill="black" points="56,8 57,8" /><polygon fill="black" points="45,8" /><polygon fill="black" points="34,8" /><polygon fill="black" points="32,8 32,9" /><polygon fill="black" points="8,8" /><polygon fill="black" points="51,7 50,8 51,7 52,8" /><polygon fill="black" points="63,6" /><polygon fill="black" points="58,6" /><polygon fill="black" points="47,6" /><polygon fill="black" points="40,6 39,7 40,6 41,7 41,8 40,9 41,8 42,9 42,10 42,9 43,8 43,7 42,6" /><polygon fill="black" points="36,6" /><polygon fill="black" points="12,6 11,7 10,7 10,8 12,6 13,7" /><polygon fill="black" points="7,6 8,6" /><polygon fill="black" points="54,5" /><polygon fill="black" points="52,5" /><polygon fill="black" points="21,5 21,7" /><polygon fill="black" points="19,5 19,6 18,7 17,6 16,6 17,7 18,7 19,6" /><polygon fill="black" points="2,5 2,6" /><polygon fill="black" points="0,5" /><polygon fill="black" points="33,4" /><polygon fill="black" points="31,4 31,5 29,7 31,5" /><polygon fill="black" points="23,4" /><polygon fill="black" points="27,3 27,4 28,5 27,6 28,5 27,4" /><polygon fill="black" points="17,3" /><polygon fill="black" points="61,2 62,3 61,4 61,5 60,6 61,5 61,4 62,3" /><polygon fill="black" points="51,1 52,2" /><polygon fill="black" points="22,1" /><polygon fill="black" points="11,1" /><polygon fill="black" points="58,0 58,1 59,0 63,0" /><polygon fill="black" points="56,0" /><polygon fill="black" points="48,0" /><polygon fill="black" points="42,0 43,0" /><polygon fill="black" points="38,0" /><polygon fill="black" points="36,0" /><polygon fill="black" points="34,0" /><polygon fill="black" points="26,0" /><polygon fill="black" points="8,0 6,2" /><polygon fill="black" points="5,0" /><polygon fill="black" points="3,0 2,1 2,2 1,3 2,2 3,3 2,2 2,1" /></svg>